<?xml version="1.0" encoding="UTF-8" standalone="no"?>
<!-- Created with Inkscape (http://www.inkscape.org/) -->

<svg
   xmlns:dc="http://purl.org/dc/elements/1.1/"
   xmlns:cc="http://creativecommons.org/ns#"
   xmlns:rdf="http://www.w3.org/1999/02/22-rdf-syntax-ns#"
   xmlns:svg="http://www.w3.org/2000/svg"
   xmlns="http://www.w3.org/2000/svg"
   xmlns:sodipodi="http://sodipodi.sourceforge.net/DTD/sodipodi-0.dtd"
   xmlns:inkscape="http://www.inkscape.org/namespaces/inkscape"
   width="744.09448819"
   height="1052.3622047"
   id="svg2"
   version="1.1"
   inkscape:version="0.48.4 r9939"
   sodipodi:docname="logo.svg">
  <defs
     id="defs4" />
  <sodipodi:namedview
     id="base"
     pagecolor="#ffffff"
     bordercolor="#666666"
     borderopacity="1.0"
     inkscape:pageopacity="0.0"
     inkscape:pageshadow="2"
     inkscape:zoom="1"
     inkscape:cx="104.34156"
     inkscape:cy="580.86699"
     inkscape:document-units="px"
     inkscape:current-layer="layer1"
     showgrid="true"
     inkscape:window-width="1366"
     inkscape:window-height="712"
     inkscape:window-x="0"
     inkscape:window-y="27"
     inkscape:window-maximized="1"
     showguides="true"
     inkscape:guide-bbox="true">
    <inkscape:grid
       type="xygrid"
       id="grid3123"
       empspacing="5"
       visible="true"
       enabled="true"
       snapvisiblegridlinesonly="true" />
    <sodipodi:guide
       orientation="0,1"
       position="165,900"
       id="guide3133" />
    <sodipodi:guide
       orientation="0,1"
       position="170,760"
       id="guide3135" />
    <sodipodi:guide
       orientation="0,1"
       position="220,830"
       id="guide3145" />
  </sodipodi:namedview>
  <metadata
     id="metadata7">
    <rdf:RDF>
      <cc:Work
         rdf:about="">
        <dc:format>image/svg+xml</dc:format>
        <dc:type
           rdf:resource="http://purl.org/dc/dcmitype/StillImage" />
        <dc:title></dc:title>
      </cc:Work>
    </rdf:RDF>
  </metadata>
  <g
     inkscape:label="Layer 1"
     inkscape:groupmode="layer"
     id="layer1">
    <g
       style="font-size:100px;font-style:normal;font-variant:normal;font-weight:normal;font-stretch:normal;line-height:125%;letter-spacing:-10px;word-spacing:0px;fill:#000000;fill-opacity:1;stroke:none;font-family:Courier New;-inkscape-font-specification:Courier New"
       id="text3137"
       inkscape:export-filename="/home/padenot/src/repositories/tmpsnd-daw/assets/logo.png"
       inkscape:export-xdpi="299.89908"
       inkscape:export-ydpi="299.89908">
      <path
         d="m 142.08203,630.07703 22.26563,0 c 0.97651,4e-5 1.67638,0.19535 2.09961,0.58593 0.42313,0.39067 0.63471,0.89523 0.63476,1.51368 -5e-5,0.58597 -0.21163,1.07425 -0.63476,1.46484 -0.42323,0.39066 -1.1231,0.58598 -2.09961,0.58594 l -22.26563,0 0,27.29492 c -2e-5,2.37631 0.94399,4.36198 2.83203,5.95703 1.92055,1.59506 4.72003,2.39258 8.39844,2.39258 2.76689,0 5.76168,-0.4069 8.98437,-1.2207 3.22262,-0.84635 5.72912,-1.79036 7.51954,-2.83204 0.65099,-0.42317 1.1881,-0.63475 1.61132,-0.63476 0.52079,10e-6 0.97651,0.21159 1.36719,0.63476 0.39057,0.39064 0.58589,0.86264 0.58594,1.41602 -5e-5,0.48829 -0.21164,0.94401 -0.63477,1.36719 -1.04171,1.07422 -3.58077,2.24609 -7.61718,3.51562 -4.00395,1.23698 -7.84509,1.85547 -11.52344,1.85547 -4.78519,0 -8.59378,-1.12305 -11.42578,-3.36914 -2.83205,-2.24609 -4.24807,-5.27343 -4.24805,-9.08203 l 0,-27.29492 -7.56836,0 c -0.97657,4e-5 -1.67644,-0.19528 -2.09961,-0.58594 -0.42318,-0.39059 -0.63477,-0.89514 -0.63476,-1.51367 -1e-5,-0.5859 0.21158,-1.07418 0.63476,-1.46485 0.42317,-0.39058 1.12304,-0.58589 2.09961,-0.58593 l 7.56836,0 0,-12.10938 c -2e-5,-0.97651 0.1953,-1.67637 0.58594,-2.09961 0.3906,-0.42312 0.87889,-0.63471 1.46484,-0.63476 0.61847,5e-5 1.12303,0.21164 1.51367,0.63476 0.39061,0.42324 0.58592,1.1231 0.58594,2.09961 l 0,12.10938"
         style="-inkscape-font-specification:Courier New"
         id="path4124"
         inkscape:connector-curvature="0" />
      <path
         d="m 183.28906,630.07703 0,4.15039 c 3.48306,-3.74345 6.98241,-5.61519 10.49805,-5.61524 2.11586,5e-5 3.97133,0.56971 5.56641,1.70899 1.59502,1.10681 2.92965,2.79952 4.0039,5.07812 1.82289,-2.2786 3.66208,-3.97131 5.51758,-5.07812 1.88798,-1.13928 3.776,-1.70894 5.66406,-1.70899 2.9622,5e-5 5.32222,0.96033 7.08008,2.88086 2.31115,2.474 3.46674,5.17582 3.4668,8.10547 l 0,28.66211 3.46679,0 c 0.97651,0 1.67638,0.19532 2.09961,0.58594 0.42312,0.35807 0.63471,0.84635 0.63477,1.46484 -6e-5,0.58594 -0.21165,1.07422 -0.63477,1.46485 -0.42323,0.39062 -1.1231,0.58593 -2.09961,0.58593 l -7.56836,0 0,-32.37304 c -4e-5,-2.0833 -0.63481,-3.80856 -1.90429,-5.17579 -1.26958,-1.36714 -2.73442,-2.05074 -4.39453,-2.05078 -1.49744,4e-5 -3.07621,0.5697 -4.73633,1.70899 -1.66019,1.10681 -3.54821,3.30407 -5.66406,6.59179 l 0,27.19727 3.41796,0 c 0.97653,0 1.6764,0.19532 2.09961,0.58594 0.42314,0.35807 0.63473,0.84635 0.63477,1.46484 -4e-5,0.58594 -0.21163,1.07422 -0.63477,1.46485 -0.42321,0.39062 -1.12308,0.58593 -2.09961,0.58593 l -7.56835,0 0,-32.08008 c -3e-5,-2.18095 -0.65107,-3.97131 -1.95313,-5.37109 -1.26956,-1.43225 -2.70185,-2.1484 -4.29687,-2.14844 -1.46487,4e-5 -2.91343,0.47205 -4.34571,1.41602 -1.98569,1.33467 -4.06902,3.62959 -6.25,6.88476 l 0,27.19727 3.4668,0 c 0.97655,0 1.67642,0.19532 2.09961,0.58594 0.42316,0.35807 0.63475,0.84635 0.63476,1.46484 -1e-5,0.58594 -0.2116,1.07422 -0.63476,1.46485 -0.42319,0.39062 -1.12306,0.58593 -2.09961,0.58593 l -11.03516,0 c -0.97656,0 -1.67643,-0.19531 -2.09961,-0.58593 -0.42317,-0.39063 -0.63476,-0.87891 -0.63476,-1.46485 0,-0.61849 0.21159,-1.10677 0.63476,-1.46484 0.42318,-0.39062 1.12305,-0.58594 2.09961,-0.58594 l 3.4668,0 0,-34.0332 -3.4668,0 c -0.97656,4e-5 -1.67643,-0.19528 -2.09961,-0.58594 -0.42317,-0.39059 -0.63476,-0.89514 -0.63476,-1.51367 0,-0.5859 0.21159,-1.07418 0.63476,-1.46485 0.42318,-0.39058 1.12305,-0.58589 2.09961,-0.58593 l 7.56836,0"
         style="-inkscape-font-specification:Courier New"
         id="path4126" />
      <path
         d="m 236.47266,630.07703 0,7.4707 c 2.44139,-2.9622 5.06183,-5.19202 7.86132,-6.68945 2.79946,-1.49736 6.10349,-2.24605 9.91211,-2.2461 4.03643,5e-5 7.76364,0.94406 11.18164,2.83203 3.41793,1.88806 6.05464,4.52478 7.91016,7.91016 1.88797,3.35289 2.83198,6.88479 2.83203,10.5957 -5e-5,5.89195 -2.11594,10.93751 -6.34765,15.13672 -4.19927,4.16667 -9.37504,6.25 -15.52735,6.25 -7.32424,0 -13.26499,-2.97851 -17.82226,-8.93554 l 0,24.70703 9.96093,0 c 0.97654,-2e-5 1.67641,0.17902 2.09961,0.53711 0.42315,0.39061 0.63474,0.89516 0.63477,1.51367 -3e-5,0.58592 -0.21162,1.0742 -0.63477,1.46484 -0.4232,0.39061 -1.12307,0.58592 -2.09961,0.58594 l -19.58007,0 c -0.97657,-2e-5 -1.67644,-0.19533 -2.09961,-0.58594 -0.42318,-0.35809 -0.63477,-0.84637 -0.63477,-1.46484 0,-0.61851 0.21159,-1.12306 0.63477,-1.51367 0.42317,-0.35809 1.12304,-0.53713 2.09961,-0.53711 l 5.51757,0 0,-52.88086 -5.51757,0 c -0.97657,4e-5 -1.67644,-0.19528 -2.09961,-0.58594 -0.42318,-0.39059 -0.63477,-0.89514 -0.63477,-1.51367 0,-0.5859 0.21159,-1.07418 0.63477,-1.46485 0.42317,-0.39058 1.12304,-0.58589 2.09961,-0.58593 l 9.61914,0 m 35.54687,19.87304 c -5e-5,-4.72002 -1.72531,-8.75648 -5.17578,-12.10937 -3.41801,-3.38538 -7.60095,-5.07809 -12.54883,-5.07813 -4.98049,4e-5 -9.19598,1.69275 -12.64648,5.07813 -3.45054,3.38545 -5.1758,7.4219 -5.17578,12.10937 -2e-5,4.72007 1.72524,8.7728 5.17578,12.15821 3.4505,3.38542 7.66599,5.07813 12.64648,5.07812 4.91533,10e-6 9.09827,-1.67642 12.54883,-5.0293 3.45047,-3.3854 5.17573,-7.4544 5.17578,-12.20703"
         style="-inkscape-font-specification:Courier New"
         id="path4128" />
      <path
         d="m 308.71999,632.76257 c -4e-5,-0.94397 0.19527,-1.62756 0.58594,-2.05078 0.39058,-0.42313 0.87886,-0.63472 1.46484,-0.63476 0.61844,4e-5 1.123,0.21163 1.51367,0.63476 0.39058,0.42322 0.58589,1.13937 0.58594,2.14844 l 0,7.03125 c -5e-5,0.97659 -0.19536,1.67646 -0.58594,2.09961 -0.39067,0.42321 -0.89523,0.63479 -1.51367,0.63476 -0.55343,3e-5 -1.02543,-0.179 -1.41601,-0.5371 -0.35812,-0.35805 -0.56971,-0.94398 -0.63477,-1.75782 -0.19536,-1.95309 -1.20447,-3.56441 -3.02734,-4.83398 -2.66931,-1.82288 -6.20121,-2.73434 -10.59571,-2.73438 -4.58987,4e-5 -8.15432,0.92778 -10.69336,2.78321 -1.92059,1.39977 -2.88087,2.96227 -2.88086,4.6875 -10e-6,1.95315 1.13931,3.58075 3.41797,4.88281 1.56248,0.91148 4.52472,1.61135 8.88672,2.09961 5.69658,0.61851 9.65166,1.31838 11.86524,2.09961 3.1575,1.13934 5.50125,2.71812 7.03125,4.73633 1.56245,2.01824 2.3437,4.19923 2.34375,6.54296 -5e-5,3.48309 -1.67648,6.59181 -5.0293,9.32618 -3.35291,2.70182 -8.26827,4.05273 -14.74609,4.05273 -6.47789,0 -11.78388,-1.64388 -15.91797,-4.93164 -2e-5,1.10677 -0.0651,1.82292 -0.19532,2.14844 -0.13022,0.32552 -0.37436,0.60221 -0.73242,0.83008 -0.32553,0.22786 -0.69988,0.34179 -1.12304,0.34179 -0.58595,0 -1.07423,-0.21159 -1.46485,-0.63476 -0.39063,-0.42318 -0.58595,-1.12305 -0.58594,-2.09961 l 0,-8.44727 c -10e-6,-0.97655 0.17903,-1.67642 0.53711,-2.09961 0.39062,-0.42316 0.89517,-0.63475 1.51368,-0.63476 0.58592,10e-6 1.0742,0.2116 1.46484,0.63476 0.42316,0.39064 0.63475,0.92775 0.63476,1.61133 -1e-5,1.49741 0.37434,2.75066 1.12305,3.75977 1.13931,1.5625 2.94595,2.86458 5.41992,3.90625 2.50649,1.00911 5.56638,1.51367 9.17969,1.51367 5.33851,0 9.30986,-0.99284 11.91406,-2.97852 2.60413,-1.98567 3.90621,-4.08527 3.90625,-6.29883 -4e-5,-2.53904 -1.3184,-4.57355 -3.95507,-6.10351 -2.66931,-1.52993 -6.55928,-2.55532 -11.66993,-3.07617 -5.07815,-0.52081 -8.72398,-1.20441 -10.9375,-2.05078 -2.21355,-0.84633 -3.93881,-2.11586 -5.17578,-3.8086 -1.23699,-1.69268 -1.85548,-3.51559 -1.85547,-5.46875 -10e-6,-3.51559 1.72525,-6.29879 5.17578,-8.34961 3.4505,-2.08329 7.56834,-3.12495 12.35352,-3.125 5.66403,5e-5 10.27014,1.38351 13.81836,4.15039"
         style="-inkscape-font-specification:Courier New"
         id="path4130"
         inkscape:connector-curvature="0" />
      <path
         d="m 325.51032,630.07703 0,6.20117 c 2.86456,-2.8971 5.45245,-4.89905 7.76367,-6.00586 2.31117,-1.10673 4.91533,-1.66011 7.8125,-1.66016 3.12496,5e-5 5.97327,0.66736 8.54492,2.00196 1.82287,0.9766 3.46675,2.6042 4.93164,4.88281 1.49735,2.24613 2.24605,4.55732 2.24609,6.93359 l 0,25.83008 3.4668,0 c 0.97651,0 1.67638,0.19532 2.09961,0.58594 0.42312,0.35807 0.63471,0.84635 0.63477,1.46484 -6e-5,0.58594 -0.21165,1.07422 -0.63477,1.46485 -0.42323,0.39062 -1.1231,0.58593 -2.09961,0.58593 l -10.98633,0 c -1.00915,0 -1.7253,-0.19531 -2.14843,-0.58593 -0.42322,-0.39063 -0.63481,-0.87891 -0.63477,-1.46485 -4e-5,-0.61849 0.21155,-1.10677 0.63477,-1.46484 0.42313,-0.39062 1.13928,-0.58594 2.14843,-0.58594 l 3.41797,0 0,-25.14648 c -4e-5,-2.89711 -1.05798,-5.33851 -3.17383,-7.32422 -2.11592,-2.01819 -4.94795,-3.02731 -8.49609,-3.02735 -2.70185,4e-5 -5.0456,0.55343 -7.03125,1.66016 -1.9857,1.07426 -4.81773,3.77608 -8.49609,8.10547 l 0,25.73242 4.63867,0 c 0.97654,0 1.67641,0.19532 2.09961,0.58594 0.42315,0.35807 0.63474,0.84635 0.63476,1.46484 -2e-5,0.58594 -0.21161,1.07422 -0.63476,1.46485 -0.4232,0.39062 -1.12307,0.58593 -2.09961,0.58593 l -13.37891,0 c -0.97657,0 -1.67644,-0.19531 -2.09961,-0.58593 -0.42318,-0.39063 -0.63477,-0.87891 -0.63476,-1.46485 -10e-6,-0.61849 0.21158,-1.10677 0.63476,-1.46484 0.42317,-0.39062 1.12304,-0.58594 2.09961,-0.58594 l 4.63867,0 0,-34.0332 -3.46679,0 c -0.97657,4e-5 -1.67644,-0.19528 -2.09961,-0.58594 -0.42319,-0.39059 -0.63477,-0.89514 -0.63477,-1.51367 0,-0.5859 0.21158,-1.07418 0.63477,-1.46485 0.42317,-0.39058 1.12304,-0.58589 2.09961,-0.58593 l 7.56836,0"
         style="-inkscape-font-specification:Courier New"
         id="path4132"
         inkscape:connector-curvature="0" />
      <path
         d="m 404.57822,611.08289 0,57.17773 5.46875,0 c 1.00906,0 1.72521,0.19532 2.14844,0.58594 0.42312,0.35807 0.63471,0.84635 0.63477,1.46484 -6e-5,0.58594 -0.21165,1.07422 -0.63477,1.46485 -0.42323,0.39062 -1.13938,0.58593 -2.14844,0.58593 l -9.61914,0 0,-8.15429 c -4.75264,6.51041 -10.79105,9.76562 -18.11523,9.76562 -3.71096,0 -7.27541,-0.97656 -10.69336,-2.92969 -3.38543,-1.98567 -6.07098,-4.80142 -8.05664,-8.44726 -1.95313,-3.64582 -2.92969,-7.40558 -2.92969,-11.2793 0,-3.90622 0.97656,-7.66599 2.92969,-11.2793 1.98566,-3.64579 4.67121,-6.46155 8.05664,-8.44726 3.41795,-1.98564 6.99867,-2.97847 10.74219,-2.97852 7.16142,5e-5 13.18355,3.25525 18.0664,9.76563 l 0,-23.14453 -5.46875,0 c -1.00915,5e-5 -1.7253,-0.19526 -2.14843,-0.58594 -0.42322,-0.39057 -0.63481,-0.89512 -0.63477,-1.51367 -4e-5,-0.58588 0.21155,-1.07416 0.63477,-1.46485 0.42313,-0.39056 1.13928,-0.58587 2.14843,-0.58593 l 9.61914,0 m -4.15039,40.23437 c -4e-5,-5.20831 -1.75785,-9.60283 -5.27343,-13.18359 -3.51567,-3.58069 -7.69861,-5.37106 -12.54883,-5.3711 -4.88284,4e-5 -9.08205,1.79041 -12.59766,5.3711 -3.51564,3.58076 -5.27345,7.97528 -5.27344,13.18359 -10e-6,5.1758 1.7578,9.57032 5.27344,13.18359 3.51561,3.58074 7.71482,5.3711 12.59766,5.3711 4.85022,0 9.03316,-1.79036 12.54883,-5.3711 3.51558,-3.61327 5.27339,-8.00779 5.27343,-13.18359"
         style="-inkscape-font-specification:Courier New"
         id="path4134"
         inkscape:connector-curvature="0" />
    </g>
    <path
       style="fill:none;stroke:#000000;stroke-width:5;stroke-linecap:butt;stroke-linejoin:miter;stroke-opacity:1;stroke-miterlimit:4;stroke-dasharray:none"
       d="m 170,152.36218 -40,140"
       id="path3141"
       inkscape:connector-curvature="0" />
    <path
       style="fill:none;stroke:#000000;stroke-width:5;stroke-linecap:butt;stroke-linejoin:miter;stroke-opacity:1;stroke-miterlimit:4;stroke-dasharray:none"
       d="m 150,292.36218 20,-70"
       id="path3147"
       inkscape:connector-curvature="0"
       sodipodi:nodetypes="cc" />
    <path
       style="fill:none;stroke:#000000;stroke-width:5;stroke-linecap:butt;stroke-linejoin:miter;stroke-opacity:1;stroke-miterlimit:4;stroke-dasharray:none"
       d="m 170,292.36218 20,-70"
       id="path3149"
       inkscape:connector-curvature="0"
       sodipodi:nodetypes="cc" />
    <path
       style="fill:none;stroke:#000000;stroke-width:5;stroke-linecap:butt;stroke-linejoin:miter;stroke-opacity:1;stroke-miterlimit:4;stroke-dasharray:none"
       d="m 190,292.36218 20,-70"
       id="path3151"
       inkscape:connector-curvature="0"
       sodipodi:nodetypes="cc" />
    <path
       style="fill:none;stroke:#000000;stroke-width:5;stroke-linecap:butt;stroke-linejoin:miter;stroke-opacity:1;stroke-miterlimit:4;stroke-dasharray:none"
       d="m 230,222.36218 -40,140"
       id="path3141-7"
       inkscape:connector-curvature="0"
       sodipodi:nodetypes="cc" />
    <path
       style="fill:none;stroke:#000000;stroke-width:5;stroke-linecap:butt;stroke-linejoin:miter;stroke-opacity:1;stroke-miterlimit:4;stroke-dasharray:none"
       d="m 230,292.36218 20,-70"
       id="path3151-4"
       inkscape:connector-curvature="0"
       sodipodi:nodetypes="cc" />
    <path
       style="fill:none;stroke:#000000;stroke-width:5;stroke-linecap:butt;stroke-linejoin:miter;stroke-opacity:1;stroke-miterlimit:4;stroke-dasharray:none"
       d="m 250.20458,292.46268 5.71312,-20.23157"
       id="path3151-4-6"
       inkscape:connector-curvature="0"
       sodipodi:nodetypes="cc" />
    <path
       style="fill:none;stroke:#000000;stroke-width:5;stroke-linecap:butt;stroke-linejoin:miter;stroke-opacity:1;stroke-miterlimit:4;stroke-dasharray:none"
       d="m 260.27728,292.36218 20,-70"
       id="path3151-4-6-1"
       inkscape:connector-curvature="0"
       sodipodi:nodetypes="cc" />
    <path
       style="fill:none;stroke:#000000;stroke-width:5;stroke-linecap:butt;stroke-linejoin:miter;stroke-opacity:1;stroke-miterlimit:4;stroke-dasharray:none"
       d="m 285.14071,242.54811 5.76741,-20.18593"
       id="path3151-4-6-1-2"
       inkscape:connector-curvature="0"
       sodipodi:nodetypes="cc" />
    <path
       style="fill:none;stroke:#000000;stroke-width:5;stroke-linecap:butt;stroke-linejoin:miter;stroke-opacity:1;stroke-miterlimit:4;stroke-dasharray:none"
       d="m 289.88388,292.4783 20,-70"
       id="path3151-4-4"
       inkscape:connector-curvature="0"
       sodipodi:nodetypes="cc" />
    <path
       style="fill:none;stroke:#000000;stroke-width:5;stroke-linecap:butt;stroke-linejoin:miter;stroke-opacity:1;stroke-miterlimit:4;stroke-dasharray:none"
       d="M 310.33972,292.45228 324.56197,242.6744"
       id="path3151-4-4-9"
       inkscape:connector-curvature="0"
       sodipodi:nodetypes="cc" />
    <path
       style="fill:none;stroke:#000000;stroke-width:5;stroke-linecap:butt;stroke-linejoin:miter;stroke-opacity:1;stroke-miterlimit:4;stroke-dasharray:none"
       d="m 324.58236,292.73135 20,-70"
       id="path3151-4-4-8"
       inkscape:connector-curvature="0"
       sodipodi:nodetypes="cc" />
    <path
       style="fill:none;stroke:#000000;stroke-width:5;stroke-linecap:butt;stroke-linejoin:miter;stroke-opacity:1;stroke-miterlimit:4;stroke-dasharray:none"
       d="m 384.85996,151.65329 -40,140"
       id="path3141-3"
       inkscape:connector-curvature="0" />
    <path
       sodipodi:type="arc"
       style="fill:#000000;fill-opacity:1;stroke:none"
       id="path4136"
       sodipodi:cx="252.5"
       sodipodi:cy="649.86218"
       sodipodi:rx="7.5"
       sodipodi:ry="7.5"
       d="m 245.08948,648.70708 a 7.5,7.5 0 1 1 -4.1e-4,0.003"
       sodipodi:start="3.296222"
       sodipodi:end="9.5790476"
       sodipodi:open="true"
       transform="translate(1.7196699,0.50001596)"
       inkscape:export-filename="/home/padenot/src/repositories/tmpsnd-daw/assets/logo.png"
       inkscape:export-xdpi="299.89908"
       inkscape:export-ydpi="299.89908" />
    <path
       sodipodi:type="arc"
       style="fill:#000000;fill-opacity:1;stroke:none"
       id="path4136-1"
       sodipodi:cx="252.5"
       sodipodi:cy="649.86218"
       sodipodi:rx="7.7499981"
       sodipodi:ry="7.7499981"
       d="m 244.84247,648.66858 a 7.7499981,7.7499981 0 1 1 -4.3e-4,0.003"
       sodipodi:start="3.296222"
       sodipodi:end="9.5790476"
       sodipodi:open="true"
       transform="translate(130,0.50001596)"
       inkscape:export-filename="/home/padenot/src/repositories/tmpsnd-daw/assets/logo.png"
       inkscape:export-xdpi="299.89908"
       inkscape:export-ydpi="299.89908" />
  </g>
</svg>
